<?xml version="1.0" encoding="utf-8"?>
<!-- Generator: Adobe Illustrator 28.0.0, SVG Export Plug-In . SVG Version: 6.00 Build 0)  -->
<svg version="1.1" xmlns="http://www.w3.org/2000/svg" xmlns:xlink="http://www.w3.org/1999/xlink" x="0px" y="0px"
	 viewBox="0 0 500 500" style="enable-background:new 0 0 500 500;" xml:space="preserve">
<style type="text/css">
	.st0{display:none;}
	.st1{display:inline;fill:#FFFFFF;}
	.st2{opacity:0.2;fill:#222221;}
	.st3{fill:#230306;}
</style>
<g id="BACKGROUND" class="st0">
	<rect y="0.77" class="st1" width="500" height="500"/>
</g>
<g id="OBJECTS">
	<g>
		<g>
			<path class="st2" d="M321.55,261.59c-1.05-2.23-2.32-4.4-3.77-6.44c-7.75-10.91-19.42-17.72-32.02-18.71
				c-7.2-0.56-14.85,1.26-19.21,2.99c-10.55,4.2-15.63,9.62-23.61,25.21c-1.59,3.11-4,7.8-6.42,10.36c-1.36,1.43-2.85,2.7-4.44,3.83
				c-9.77-4.27-16.06-13.82-16.06-24.52c0-6.97,2.62-13.48,7.4-18.48c9.17,10.51,21.05,14.18,21.58,14.34
				c0.02,0.01,0.04,0.01,0.07,0.02h0c0,0,0,0,0,0c0,0,0,0,0,0c0,0,0,0,0,0c0.09,0.02,0.18,0.03,0.27,0.03c0,0,0,0,0,0c0,0,0,0,0,0
				c0,0,0,0,0,0c0.1,0,0.2-0.02,0.3-0.04c0,0,0,0,0.01,0c0,0,0,0,0,0c0,0,0,0,0.01,0c0,0,0.01,0,0.01,0
				c0.73-0.22,25.77-7.93,31.15-33.58c0.01-0.03,0.03-0.05,0.04-0.09c0.13-0.49,3.22-12.06-0.65-22.56
				c-0.21-0.57-0.82-0.89-1.41-0.73c-7.93,2.19-14.13,7.75-16.99,10.71c-7.27-3.46-15.06-5.23-23.18-5.23
				c-2.39,0-4.8,0.16-7.16,0.48c-3.11-2.35-7.07-4.71-11.61-5.96c-0.58-0.16-1.2,0.15-1.41,0.73c-1.17,3.17-1.69,6.43-1.87,9.45
				c-19.47,8.7-32.02,28-32.02,49.38c0,29.82,24.26,54.07,54.07,54.07c4.93,0,9.79-0.66,14.46-1.96c0.57-0.15,1.13-0.32,1.69-0.49
				c9.23-2.89,17.51-8.25,23.97-15.4c7.48-0.76,14.92,0.73,21.55,4.37c2.61,1.43,5.03,3.16,7.2,5.15c0.37,0.33,0.72,0.67,1.08,1.02
				c0.22,0.22,0.52,0.34,0.83,0.34c0.13,0,0.25-0.02,0.37-0.06c0.42-0.14,0.73-0.51,0.79-0.95c0.33-2.46,0.44-4.97,0.34-7.46
				c-0.09-2.03-0.32-4.06-0.69-6.07c1.61,0.69,3.16,1.48,4.64,2.39c0.43,0.25,0.84,0.52,1.25,0.8c0.2,0.13,0.43,0.2,0.66,0.2
				c0.2,0,0.4-0.05,0.58-0.15c0.39-0.22,0.62-0.64,0.59-1.09c-0.14-2.48-0.51-4.96-1.09-7.38c-0.47-1.97-1.09-3.92-1.84-5.83
				c1.71,0.37,3.38,0.85,5.01,1.46c0.47,0.17,0.92,0.35,1.38,0.54c0.41,0.17,0.89,0.1,1.22-0.19c0.34-0.29,0.48-0.75,0.37-1.18
				c-0.61-2.4-1.45-4.77-2.48-7.04c-0.84-1.85-1.82-3.65-2.92-5.37c1.75,0.04,3.48,0.19,5.19,0.48c0.49,0.08,0.97,0.17,1.45,0.27
				c0.44,0.09,0.89-0.07,1.17-0.42C321.69,262.47,321.75,261.99,321.55,261.59z M216.44,217.45c15.16,2.69,24.23,22.74,26.93,29.64
				C237.32,244.67,221.09,236.51,216.44,217.45z M245.33,245.65c-1.2-3.03-3.39-7.96-6.59-13.02c-6.05-9.57-13.18-15.48-20.77-17.25
				c4.61-3.01,15.48-9.14,27.36-9.14c11.86,0,22.74,6.14,27.35,9.14c-7.59,1.77-14.72,7.68-20.77,17.25
				C248.72,237.69,246.54,242.62,245.33,245.65z M247.3,247.09c2.69-6.9,11.76-26.95,26.93-29.63
				C269.58,236.48,253.35,244.65,247.3,247.09z M274.37,195.79c2.29,7.18,1.27,14.89,0.62,18.29c-2.62-1.81-8.54-5.52-16.06-7.93
				C261.18,203.75,266.96,198.18,274.37,195.79z M234.63,201.04c6.79,0,13.35,1.3,19.53,3.83c-2.81-0.61-5.78-0.98-8.83-0.98
				c-3.88,0-7.63,0.61-11.1,1.53c-0.62-0.72-2.07-2.3-4.18-4.15C231.58,201.13,233.1,201.04,234.63,201.04z M216.29,195.79
				c7.39,2.39,13.18,7.96,15.43,10.36c-7.52,2.41-13.43,6.12-16.06,7.93C215.02,210.68,214,202.97,216.29,195.79z M212.51,206.02
				c0.04,5.77,1.21,10.18,1.29,10.47c0.01,0.03,0.03,0.05,0.04,0.08c0.39,1.88,0.9,3.65,1.49,5.35c-0.2,0-0.39-0.02-0.59-0.02
				c-15.17,0-27.95,10.49-31.45,24.59C185.41,228.98,196.38,213.66,212.51,206.02z M214.74,224.25c0.5,0,1,0.03,1.5,0.05
				c1.54,3.7,3.5,6.92,5.68,9.71c-5.32,5.46-8.24,12.63-8.24,20.3c0,11.13,6.23,21.12,16.06,26.04c-4.54,2.63-9.68,4.01-15,4.01
				c-16.57,0-30.05-13.48-30.05-30.05C184.68,237.74,198.16,224.25,214.74,224.25z M304.57,291.49c0.07,1.58,0.04,3.17-0.08,4.74
				c-2.14-1.89-4.51-3.54-7.05-4.94c-6.34-3.48-13.38-5.12-20.53-4.82c0.46-0.57,0.9-1.15,1.33-1.75c0,0,0.01,0,0.01,0
				c7.94-3.05,16.42-3.29,24.56-0.7c0.27,0.09,0.53,0.19,0.8,0.28C304.14,286.67,304.47,289.08,304.57,291.49z M310.56,280.63
				c0.37,1.53,0.64,3.1,0.83,4.67c-2.45-1.44-5.09-2.61-7.87-3.5c-7.54-2.41-15.68-2.48-23.22-0.24c0.12-0.2,0.22-0.41,0.34-0.61
				c7.68-5.84,17.17-8.43,26.77-7.3c0.28,0.03,0.56,0.08,0.84,0.12C309.22,275.99,310.01,278.29,310.56,280.63z M316.08,273.25
				c-2.69-0.95-5.51-1.6-8.39-1.94c-8.22-0.97-16.36,0.63-23.48,4.53c6.41-7.73,15.62-12.52,25.74-13.27
				c0.28-0.02,0.57-0.02,0.85-0.04c1.37,1.99,2.58,4.1,3.58,6.3C315.03,270.27,315.6,271.75,316.08,273.25z M309.78,260.22
				c-11.92,0.88-22.67,7.03-29.47,16.86c-0.56,0.8-1.07,1.62-1.56,2.46c-0.02,0.04-0.04,0.07-0.06,0.11c-0.35,0.59-0.69,1.18-1,1.78
				c-6.55,9.84-16.35,17.2-27.6,20.72c-0.53,0.16-1.06,0.32-1.61,0.47c-4.47,1.25-9.13,1.88-13.84,1.88
				c-23.65,0-43.64-15.96-49.78-37.67c4.91,11.67,16.46,19.88,29.89,19.88c6.5,0,12.76-1.92,18.12-5.54c0,0,0,0,0,0
				c0,0,0.01,0,0.01-0.01c1.93-1.3,3.73-2.83,5.36-4.53c2.66-2.8,5.16-7.68,6.81-10.91c7.67-14.98,12.48-20.16,22.39-24.1
				c4.12-1.64,11.35-3.37,18.16-2.84c11.9,0.93,22.95,7.39,30.29,17.72c0.92,1.29,1.76,2.64,2.51,4.02
				C315.56,260.11,312.67,260.01,309.78,260.22z"/>
			<path class="st3" d="M319.33,261.59c-1.05-2.23-2.32-4.4-3.77-6.44c-7.75-10.91-19.42-17.72-32.02-18.71
				c-7.2-0.56-14.85,1.26-19.21,2.99c-10.55,4.2-15.63,9.62-23.61,25.21c-1.59,3.11-3.99,7.8-6.42,10.36
				c-1.35,1.43-2.85,2.7-4.44,3.83c-9.77-4.27-16.06-13.82-16.06-24.52c0-6.97,2.62-13.48,7.4-18.48
				c9.17,10.51,21.05,14.18,21.58,14.34c0.02,0.01,0.04,0.01,0.07,0.02l0,0c0,0,0,0,0,0c0,0,0,0,0,0c0,0,0,0,0,0
				c0.09,0.02,0.18,0.03,0.26,0.03c0,0,0,0,0,0c0,0,0,0,0,0c0,0,0,0,0,0c0.1,0,0.2-0.02,0.3-0.04c0,0,0,0,0.01,0c0,0,0,0,0,0
				c0,0,0,0,0,0c0,0,0.01,0,0.01,0c0.73-0.22,25.77-7.93,31.15-33.58c0.01-0.03,0.03-0.05,0.04-0.09
				c0.13-0.49,3.22-12.06-0.65-22.56c-0.21-0.57-0.82-0.89-1.41-0.73c-7.93,2.19-14.13,7.75-16.99,10.71
				c-7.27-3.46-15.06-5.23-23.18-5.23c-2.39,0-4.8,0.16-7.16,0.48c-3.11-2.35-7.07-4.71-11.61-5.96c-0.59-0.16-1.2,0.15-1.41,0.73
				c-1.17,3.17-1.69,6.43-1.87,9.45c-19.47,8.7-32.02,28-32.02,49.38c0,29.82,24.26,54.07,54.07,54.07c4.93,0,9.79-0.66,14.46-1.96
				c0.57-0.15,1.13-0.32,1.69-0.49c9.23-2.89,17.51-8.25,23.97-15.4c7.48-0.76,14.92,0.73,21.55,4.37c2.61,1.43,5.03,3.16,7.19,5.15
				c0.37,0.33,0.73,0.67,1.08,1.02c0.22,0.22,0.52,0.34,0.83,0.34c0.12,0,0.25-0.02,0.37-0.06c0.42-0.14,0.73-0.51,0.79-0.95
				c0.33-2.46,0.45-4.97,0.34-7.46c-0.09-2.03-0.32-4.06-0.7-6.07c1.61,0.69,3.16,1.48,4.64,2.39c0.43,0.25,0.84,0.52,1.25,0.8
				c0.2,0.13,0.43,0.2,0.66,0.2c0.2,0,0.4-0.05,0.58-0.15c0.39-0.22,0.62-0.64,0.59-1.09c-0.14-2.48-0.51-4.96-1.09-7.38
				c-0.47-1.97-1.09-3.92-1.84-5.83c1.71,0.37,3.38,0.85,5.01,1.46c0.46,0.17,0.92,0.35,1.38,0.54c0.41,0.17,0.89,0.1,1.22-0.19
				c0.34-0.29,0.48-0.75,0.37-1.18c-0.61-2.4-1.44-4.77-2.48-7.04c-0.84-1.85-1.82-3.65-2.92-5.37c1.75,0.04,3.48,0.19,5.19,0.48
				c0.49,0.08,0.97,0.17,1.46,0.27c0.44,0.09,0.89-0.07,1.17-0.42C319.46,262.47,319.52,261.99,319.33,261.59z M214.21,217.45
				c15.16,2.69,24.23,22.74,26.93,29.64C235.09,244.67,218.86,236.51,214.21,217.45z M243.1,245.65c-1.2-3.03-3.39-7.96-6.59-13.02
				c-6.05-9.57-13.18-15.48-20.77-17.25c4.61-3.01,15.48-9.14,27.36-9.14c11.86,0,22.74,6.14,27.35,9.14
				c-7.59,1.77-14.72,7.68-20.77,17.25C246.49,237.69,244.31,242.62,243.1,245.65z M245.07,247.09c2.69-6.9,11.76-26.95,26.93-29.63
				C267.35,236.48,251.12,244.65,245.07,247.09z M272.14,195.79c2.29,7.18,1.27,14.89,0.62,18.29c-2.62-1.81-8.54-5.52-16.06-7.93
				C258.96,203.75,264.74,198.18,272.14,195.79z M232.4,201.04c6.8,0,13.35,1.3,19.53,3.83c-2.82-0.61-5.78-0.98-8.83-0.98
				c-3.88,0-7.63,0.61-11.1,1.53c-0.62-0.72-2.07-2.3-4.18-4.15C229.35,201.13,230.88,201.04,232.4,201.04z M214.06,195.79
				c7.4,2.39,13.18,7.96,15.43,10.36c-7.52,2.41-13.43,6.12-16.06,7.93C212.79,210.68,211.77,202.97,214.06,195.79z M210.29,206.02
				c0.04,5.77,1.21,10.18,1.29,10.47c0.01,0.03,0.03,0.05,0.04,0.08c0.39,1.88,0.9,3.65,1.49,5.35c-0.2,0-0.39-0.02-0.59-0.02
				c-15.18,0-27.95,10.49-31.45,24.59C183.18,228.98,194.15,213.66,210.29,206.02z M212.51,224.25c0.5,0,1,0.03,1.5,0.05
				c1.54,3.7,3.5,6.92,5.68,9.71c-5.32,5.46-8.24,12.63-8.24,20.3c0,11.13,6.23,21.12,16.06,26.04c-4.54,2.63-9.68,4.01-14.99,4.01
				c-16.57,0-30.05-13.48-30.05-30.05C182.45,237.74,195.94,224.25,212.51,224.25z M302.34,291.49c0.07,1.58,0.04,3.17-0.08,4.74
				c-2.14-1.89-4.51-3.54-7.05-4.94c-6.34-3.48-13.39-5.12-20.53-4.82c0.46-0.57,0.9-1.15,1.34-1.75c0,0,0.01,0,0.01,0
				c7.94-3.05,16.42-3.29,24.56-0.7c0.27,0.09,0.53,0.19,0.8,0.28C301.91,286.67,302.24,289.08,302.34,291.49z M308.33,280.63
				c0.37,1.53,0.64,3.1,0.83,4.67c-2.45-1.44-5.09-2.61-7.86-3.5c-7.54-2.41-15.68-2.48-23.22-0.24c0.11-0.2,0.22-0.41,0.34-0.61
				c7.68-5.84,17.17-8.43,26.77-7.3c0.28,0.03,0.56,0.08,0.84,0.12C307,275.99,307.78,278.29,308.33,280.63z M313.85,273.25
				c-2.69-0.95-5.51-1.6-8.39-1.94c-8.22-0.97-16.36,0.63-23.48,4.53c6.41-7.73,15.62-12.52,25.74-13.27
				c0.28-0.02,0.57-0.02,0.85-0.04c1.37,1.99,2.58,4.1,3.58,6.3C312.8,270.27,313.37,271.75,313.85,273.25z M307.55,260.22
				c-11.92,0.88-22.66,7.03-29.47,16.86c-0.56,0.8-1.07,1.62-1.56,2.46c-0.02,0.04-0.04,0.07-0.06,0.11c-0.34,0.59-0.69,1.18-1,1.78
				c-6.55,9.84-16.35,17.2-27.6,20.72c-0.53,0.16-1.06,0.32-1.61,0.47c-4.47,1.25-9.13,1.88-13.84,1.88
				c-23.65,0-43.64-15.96-49.78-37.67c4.91,11.67,16.46,19.88,29.89,19.88c6.5,0,12.76-1.92,18.12-5.54c0,0,0,0,0,0
				c0,0,0.01,0,0.01-0.01c1.93-1.3,3.73-2.83,5.36-4.53c2.66-2.8,5.16-7.68,6.81-10.91c7.67-14.98,12.48-20.16,22.39-24.1
				c4.12-1.64,11.35-3.37,18.16-2.84c11.9,0.93,22.94,7.39,30.29,17.72c0.92,1.29,1.76,2.64,2.51,4.02
				C313.33,260.11,310.44,260.01,307.55,260.22z"/>
		</g>
	</g>
</g>
</svg>
