<?xml version="1.0" encoding="utf-8"?>
<!-- Generator: Adobe Illustrator 28.0.0, SVG Export Plug-In . SVG Version: 6.00 Build 0)  -->
<svg version="1.1" xmlns="http://www.w3.org/2000/svg" xmlns:xlink="http://www.w3.org/1999/xlink" x="0px" y="0px"
	 viewBox="0 0 500 500" style="enable-background:new 0 0 500 500;" xml:space="preserve">
<style type="text/css">
	.st0{display:none;}
	.st1{display:inline;fill:#FFFFFF;}
	.st2{opacity:0.2;fill:#222221;}
	.st3{fill:#230306;}
</style>
<g id="BACKGROUND" class="st0">
	<rect y="0.77" class="st1" width="500" height="500"/>
</g>
<g id="OBJECTS">
	<g>
		<g>
			<path class="st2" d="M499.6,300.98c-3.67-9.82-8.1-19.35-13.16-28.34c-27.03-47.97-67.75-77.96-111.7-82.28
				c-25.12-2.44-51.8,5.55-67,13.17c-36.81,18.47-54.52,42.31-82.37,110.88c-5.55,13.67-13.94,34.33-22.4,45.57
				c-4.73,6.27-9.95,11.9-15.5,16.84c-34.08-18.76-56.01-60.77-56.01-107.87c0-30.65,9.14-59.31,25.81-81.3
				c31.99,46.25,73.43,62.39,75.26,63.07c0.08,0.03,0.15,0.06,0.23,0.08h0c0,0,0.01,0,0.01,0c0,0.01,0.01,0,0.01,0
				c0,0,0.01,0,0.01,0c0.3,0.09,0.61,0.13,0.92,0.13c0,0,0,0,0,0c0.01,0,0.01,0,0.01,0c0.01,0,0.01,0,0.01,0
				c0.35,0,0.71-0.07,1.06-0.18c0.01-0.01,0.02-0.01,0.03-0.01c-0.01,0,0,0,0.01,0c0.01,0,0.01,0,0.02,0c0,0.01,0.03-0.01,0.04-0.02
				c2.56-0.95,89.91-34.88,108.67-147.72c0.05-0.13,0.11-0.24,0.14-0.38c0.47-2.15,11.23-53.03-2.26-99.25
				c-0.74-2.51-2.87-3.91-4.93-3.19c-27.67,9.61-49.29,34.09-59.27,47.1c-25.34-15.21-52.52-22.99-80.86-22.99
				c-8.35,0-16.75,0.72-24.98,2.09C160.58,16.08,146.75,5.69,130.9,0.19c-2.04-0.71-4.19,0.67-4.93,3.19
				c-4.07,13.93-5.91,28.27-6.51,41.58C51.54,83.25,7.77,168.14,7.77,262.15C7.77,393.3,92.39,500,196.4,500
				c17.18,0,34.17-2.9,50.45-8.63c1.99-0.67,3.95-1.39,5.91-2.16c32.19-12.7,61.1-36.3,83.61-67.73
				c26.09-3.35,52.06,3.21,75.19,19.21c9.11,6.29,17.54,13.9,25.1,22.65c1.29,1.46,2.53,2.95,3.75,4.49
				c0.78,0.98,1.83,1.52,2.9,1.52c0.44,0,0.88-0.09,1.3-0.27c1.48-0.63,2.55-2.26,2.76-4.2c1.15-10.8,1.55-21.84,1.18-32.81
				c-0.3-8.93-1.12-17.87-2.42-26.69c5.6,3.05,11.03,6.52,16.17,10.51c1.49,1.12,2.93,2.29,4.36,3.51c0.69,0.58,1.49,0.88,2.29,0.88
				c0.7,0,1.4-0.23,2.03-0.68c1.35-0.97,2.15-2.83,2.05-4.79c-0.5-10.9-1.78-21.83-3.79-32.48c-1.64-8.68-3.79-17.26-6.41-25.62
				c5.95,1.64,11.8,3.75,17.46,6.43c1.63,0.75,3.23,1.54,4.81,2.39c1.43,0.77,3.09,0.44,4.27-0.83c1.18-1.28,1.69-3.29,1.3-5.19
				c-2.14-10.55-5.05-20.97-8.65-30.97c-2.93-8.15-6.34-16.06-10.17-23.61c6.09,0.19,12.15,0.85,18.12,2.11
				c1.71,0.34,3.39,0.73,5.07,1.19c1.53,0.4,3.1-0.3,4.07-1.83C500.08,304.86,500.27,302.76,499.6,300.98z M132.92,106.83
				c52.9,11.82,84.53,100.04,93.93,130.37C205.77,226.54,149.15,190.68,132.92,106.83z M233.72,230.86
				c-4.2-13.34-11.82-35-22.97-57.27c-21.1-42.12-45.97-68.09-72.45-75.89c16.08-13.22,54.01-40.21,95.43-40.21
				c41.36,0,79.32,27,95.42,40.21c-26.49,7.8-51.36,33.78-72.45,75.89C245.53,195.86,237.92,217.52,233.72,230.86z M240.59,237.18
				c9.4-30.34,41.03-118.53,93.93-130.35C318.29,190.52,261.68,226.48,240.59,237.18z M335.02,11.54c8,31.59,4.44,65.49,2.17,80.47
				c-9.15-7.97-29.78-24.28-56.01-34.88C289.02,46.54,309.18,22.08,335.02,11.54z M196.4,34.64c23.7,0,46.55,5.7,68.12,16.83
				c-9.82-2.67-20.17-4.31-30.8-4.31c-13.54,0-26.61,2.67-38.72,6.73c-2.16-3.16-7.21-10.14-14.57-18.27
				C185.73,35.04,191.06,34.64,196.4,34.64z M132.41,11.54c25.79,10.52,45.99,35,53.84,45.59c-26.22,10.6-46.85,26.91-56.01,34.88
				C127.97,77.02,124.42,43.12,132.41,11.54z M119.23,56.56c0.13,25.37,4.21,44.77,4.49,46.07c0.03,0.14,0.1,0.24,0.14,0.37
				c1.37,8.26,3.14,16.07,5.19,23.51c-0.69-0.02-1.37-0.09-2.06-0.09c-52.93,0-97.49,46.13-109.71,108.18
				C24.69,157.56,62.94,90.17,119.23,56.56z M126.99,136.75c1.76,0,3.49,0.11,5.23,0.22c5.38,16.25,12.2,30.45,19.8,42.7
				c-18.56,24.03-28.75,55.54-28.75,89.28c0,48.96,21.75,92.9,56.03,114.52c-15.85,11.56-33.78,17.64-52.31,17.64
				c-57.81,0-104.84-59.29-104.84-132.17C22.15,196.06,69.18,136.75,126.99,136.75z M440.36,432.51c0.24,6.95,0.15,13.93-0.27,20.85
				c-7.48-8.3-15.74-15.59-24.6-21.72c-22.13-15.3-46.69-22.54-71.63-21.21c1.59-2.51,3.14-5.08,4.65-7.68c0.01,0,0.03,0,0.04,0
				c27.69-13.44,57.3-14.49,85.66-3.06c0.94,0.38,1.85,0.84,2.79,1.25C438.85,411.31,440,421.91,440.36,432.51z M461.27,384.73
				c1.28,6.75,2.25,13.62,2.89,20.52c-8.55-6.32-17.77-11.49-27.44-15.41c-26.31-10.62-54.69-10.9-81-1.06
				c0.4-0.9,0.78-1.8,1.19-2.7c26.78-25.7,59.88-37.1,93.37-32.1c0.99,0.14,1.95,0.37,2.94,0.55
				C456.59,364.3,459.32,374.43,461.27,384.73z M480.5,352.26c-9.38-4.16-19.21-7.02-29.26-8.53c-28.67-4.29-57.06,2.76-81.91,19.91
				c22.35-34,54.47-55.08,89.79-58.39c0.99-0.09,1.97-0.1,2.96-0.16c4.79,8.75,9,18.03,12.49,27.71
				C476.85,339.14,478.83,345.65,480.5,352.26z M458.52,294.96c-41.58,3.88-79.06,30.92-102.81,74.15
				c-1.94,3.52-3.74,7.13-5.45,10.81c-0.08,0.15-0.14,0.31-0.21,0.47c-1.21,2.59-2.39,5.21-3.47,7.85
				c-22.86,43.29-57.04,75.65-96.27,91.12c-1.85,0.72-3.7,1.4-5.63,2.06c-15.61,5.48-31.85,8.26-48.29,8.26
				c-82.5,0-152.24-70.18-173.66-165.68c17.11,51.32,57.4,87.45,104.25,87.45c22.67,0,44.53-8.43,63.2-24.38c0,0,0.01,0,0.01,0
				c0.01-0.01,0.02-0.02,0.03-0.03c6.74-5.73,13.02-12.43,18.68-19.94c9.28-12.33,17.99-33.78,23.75-47.97
				c26.75-65.87,43.54-88.65,78.11-105.99c14.38-7.21,39.58-14.82,63.34-12.47c41.52,4.07,80.04,32.49,105.66,77.96
				c3.21,5.69,6.14,11.61,8.77,17.69C478.69,294.48,468.6,294.04,458.52,294.96z"/>
			<path class="st3" d="M491.83,300.98c-3.67-9.82-8.1-19.35-13.16-28.34c-27.04-47.97-67.75-77.96-111.71-82.28
				c-25.12-2.44-51.79,5.55-67,13.17c-36.81,18.47-54.52,42.31-82.37,110.88c-5.55,13.67-13.93,34.33-22.4,45.57
				c-4.72,6.27-9.94,11.9-15.49,16.84c-34.08-18.76-56.02-60.77-56.02-107.87c0-30.65,9.14-59.31,25.82-81.3
				c31.99,46.25,73.43,62.39,75.26,63.07c0.07,0.03,0.15,0.06,0.23,0.08l0,0c0,0,0.01,0,0.01,0c0.01,0.01,0.01,0,0.01,0
				c0,0,0.01,0,0.01,0c0.31,0.09,0.62,0.13,0.92,0.13c0,0,0,0,0.01,0c0,0,0.01,0,0.01,0c0.01,0,0.01,0,0.01,0
				c0.35,0,0.71-0.07,1.06-0.18c0.01-0.01,0.02-0.01,0.02-0.01c-0.01,0,0.01,0,0.01,0c0,0,0.01,0,0.01,0c0,0.01,0.03-0.01,0.05-0.02
				c2.55-0.95,89.9-34.88,108.67-147.72c0.04-0.13,0.11-0.24,0.14-0.38c0.46-2.15,11.23-53.03-2.26-99.25
				c-0.74-2.51-2.86-3.91-4.93-3.19c-27.66,9.61-49.28,34.09-59.26,47.1c-25.35-15.21-52.53-22.99-80.86-22.99
				c-8.35,0-16.75,0.72-24.98,2.09c-10.84-10.32-24.67-20.71-40.51-26.21c-2.04-0.71-4.19,0.67-4.93,3.19
				c-4.07,13.93-5.91,28.27-6.51,41.58C43.76,83.25,0,168.14,0,262.15C0,393.3,84.62,500,188.62,500c17.18,0,34.17-2.9,50.45-8.63
				c1.99-0.67,3.95-1.39,5.91-2.16c32.19-12.7,61.09-36.3,83.61-67.73c26.09-3.35,52.06,3.21,75.19,19.21
				c9.1,6.29,17.54,13.9,25.1,22.65c1.3,1.46,2.53,2.95,3.76,4.49c0.77,0.98,1.83,1.52,2.9,1.52c0.43,0,0.88-0.09,1.3-0.27
				c1.47-0.63,2.54-2.26,2.75-4.2c1.16-10.8,1.56-21.84,1.19-32.81c-0.3-8.93-1.12-17.87-2.43-26.69
				c5.61,3.05,11.03,6.52,16.18,10.51c1.49,1.12,2.93,2.29,4.36,3.51c0.69,0.58,1.49,0.88,2.29,0.88c0.7,0,1.4-0.23,2.02-0.68
				c1.36-0.97,2.15-2.83,2.06-4.79c-0.5-10.9-1.79-21.83-3.8-32.48c-1.63-8.68-3.79-17.26-6.41-25.62
				c5.95,1.64,11.8,3.75,17.47,6.43c1.62,0.75,3.23,1.54,4.81,2.39c1.43,0.77,3.09,0.44,4.27-0.83c1.18-1.28,1.69-3.29,1.29-5.19
				c-2.14-10.55-5.04-20.97-8.64-30.97c-2.94-8.15-6.35-16.06-10.17-23.61c6.09,0.19,12.14,0.85,18.11,2.11
				c1.71,0.34,3.39,0.73,5.08,1.19c1.52,0.4,3.1-0.3,4.07-1.83C492.31,304.86,492.5,302.76,491.83,300.98z M125.15,106.83
				c52.9,11.82,84.53,100.04,93.93,130.37C198,226.54,141.38,190.68,125.15,106.83z M225.94,230.86c-4.2-13.34-11.81-35-22.97-57.27
				c-21.1-42.12-45.96-68.09-72.45-75.89c16.09-13.22,54.01-40.21,95.43-40.21c41.36,0,79.32,27,95.42,40.21
				c-26.49,7.8-51.36,33.78-72.45,75.89C237.76,195.86,230.15,217.52,225.94,230.86z M232.81,237.18
				c9.4-30.34,41.03-118.53,93.93-130.35C310.52,190.52,253.91,226.48,232.81,237.18z M327.25,11.54c8,31.59,4.44,65.49,2.17,80.47
				c-9.15-7.97-29.78-24.28-56.01-34.88C281.24,46.54,301.41,22.08,327.25,11.54z M188.62,34.64c23.71,0,46.55,5.7,68.13,16.83
				c-9.82-2.67-20.17-4.31-30.81-4.31c-13.54,0-26.61,2.67-38.72,6.73c-2.16-3.16-7.21-10.14-14.57-18.27
				C177.96,35.04,183.29,34.64,188.62,34.64z M124.64,11.54c25.8,10.52,45.99,35,53.84,45.59c-26.23,10.6-46.85,26.91-56.01,34.88
				C120.2,77.02,116.65,43.12,124.64,11.54z M111.46,56.56c0.12,25.37,4.21,44.77,4.49,46.07c0.03,0.14,0.1,0.24,0.14,0.37
				c1.37,8.26,3.14,16.07,5.19,23.51c-0.69-0.02-1.37-0.09-2.07-0.09c-52.94,0-97.49,46.13-109.71,108.18
				C16.92,157.56,55.17,90.17,111.46,56.56z M119.21,136.75c1.76,0,3.49,0.11,5.23,0.22c5.38,16.25,12.2,30.45,19.81,42.7
				c-18.56,24.03-28.75,55.54-28.75,89.28c0,48.96,21.75,92.9,56.03,114.52c-15.85,11.56-33.78,17.64-52.31,17.64
				c-57.81,0-104.84-59.29-104.84-132.17C14.38,196.06,61.41,136.75,119.21,136.75z M432.59,432.51c0.24,6.95,0.14,13.93-0.27,20.85
				c-7.48-8.3-15.75-15.59-24.6-21.72c-22.12-15.3-46.7-22.54-71.63-21.21c1.59-2.51,3.14-5.08,4.66-7.68c0.01,0,0.02,0,0.04,0
				c27.69-13.44,57.29-14.49,85.66-3.06c0.94,0.38,1.85,0.84,2.79,1.25C431.08,411.31,432.23,421.91,432.59,432.51z M453.49,384.73
				c1.28,6.75,2.25,13.62,2.89,20.52c-8.55-6.32-17.77-11.49-27.43-15.41c-26.32-10.62-54.7-10.9-81-1.06c0.4-0.9,0.78-1.8,1.19-2.7
				c26.78-25.7,59.89-37.1,93.37-32.1c0.98,0.14,1.95,0.37,2.93,0.55C448.82,364.3,451.55,374.43,453.49,384.73z M472.72,352.26
				c-9.38-4.16-19.21-7.02-29.26-8.53c-28.66-4.29-57.07,2.76-81.9,19.91c22.35-34,54.47-55.08,89.79-58.39
				c0.99-0.09,1.97-0.1,2.96-0.16c4.79,8.75,9,18.03,12.48,27.71C469.07,339.14,471.05,345.65,472.72,352.26z M450.75,294.96
				c-41.59,3.88-79.06,30.92-102.81,74.15c-1.95,3.52-3.74,7.13-5.45,10.81c-0.08,0.15-0.15,0.31-0.2,0.47
				c-1.2,2.59-2.4,5.21-3.47,7.85c-22.86,43.29-57.04,75.65-96.27,91.12c-1.85,0.72-3.69,1.4-5.63,2.06
				c-15.6,5.48-31.85,8.26-48.29,8.26c-82.5,0-152.24-70.18-173.66-165.68c17.11,51.32,57.4,87.45,104.25,87.45
				c22.67,0,44.52-8.43,63.19-24.38c0,0,0.01,0,0.01,0c0.01-0.01,0.02-0.02,0.03-0.03c6.73-5.73,13.02-12.43,18.68-19.94
				c9.27-12.33,17.99-33.78,23.75-47.97c26.75-65.87,43.54-88.65,78.11-105.99c14.38-7.21,39.58-14.82,63.35-12.47
				c41.52,4.07,80.04,32.49,105.66,77.96c3.21,5.69,6.14,11.61,8.77,17.69C470.91,294.48,460.83,294.04,450.75,294.96z"/>
		</g>
	</g>
</g>
</svg>
